# xmcd CD database file
#
# Track frame offsets:
#	150
#	16175
#	32455
#	50662
#	65195
#	78117
#	96335
#	112775
#	132527
#	151135
#	170145
#	186875
#	197134
#	215197
#	231402
#	251537
#	264990
#	280875
#	295872
#
# Disc length: 4170 seconds
#
# Revision: 1
# Processed by: cddbd v1.5.2PL0 Copyright (c) Steve Scherf et al.
# Submitted via: CDex 1.70beta2
#
DISCID=18104813
DTITLE=Paul Orta - Port Arthur Tex/Mex Blues
DYEAR=1996
DGENRE=Blues
TTITLE0=Fine Fine Frame
TTITLE1=You Better Believe
TTITLE2=Shake It
TTITLE3=Just Keep On Loving Her
TTITLE4=Up The Line
TTITLE5=Harmonica Convergence
TTITLE6=Get Out Of My Life
TTITLE7=A Nickle Is A Nickle
TTITLE8=I Dream About You
TTITLE9=I Can't Believe My Eyes
TTITLE10=You Were My Lovebird
TTITLE11=Little Bitty Baby
TTITLE12=You're Not Getting No Younger
TTITLE13=Si mi Quieres
TTITLE14=Last Call
TTITLE15=Callin' All Ducks
TTITLE16=I'll Kick Youre Booty
TTITLE17=This Traffic
TTITLE18=Underals
EXTD=YEAR: 1996
EXTT0=
EXTT1=
EXTT2=
EXTT3=
EXTT4=
EXTT5=
EXTT6=
EXTT7=
EXTT8=
EXTT9=
EXTT10=
EXTT11=
EXTT12=
EXTT13=
EXTT14=
EXTT15=
EXTT16=
EXTT17=
EXTT18=
PLAYORDER=
